<?xml version="1.0"?>
<svg version="1.1" xmlns="http://www.w3.org/2000/svg" width="130" height="40" style="border: dashed 2px #aaa"><path fill="#" d="M15.768,29.632l7.824,0l0-0.816l-6.832,0l0-10.416l-0.992,0l0,11.232z M26.38944,26.528q0-0.768,0.544-1.392q0.544-0.656,1.312-0.656l0.208,0l2.992,0l0-0.992l-2.992,0l-0.208,0q-0.816-0.16-1.336-0.704t-0.52-1.296q0-0.944,0.552-1.496t1.512-0.552l5.44,0l0-1.008l-5.44,0q-1.232,0-2.144,0.912q-0.912,0.88-0.912,2.144q0,0.8,0.304,1.456t0.896,0.944q-0.592,0.432-0.896,1.136t-0.304,1.504q0,1.248,0.912,2.128q0.928,0.928,2.144,0.928l5.44,0l0-1.056l-5.44,0q-0.96,0-1.512-0.544t-0.552-1.456z M40.11488,18.336q-1.792,0-3.008,1.296q-1.2,1.28-1.2,3.12l0,6.848l1.008,0l0-5.024l6.432,0l0,5.024l1.008,0l0-6.848q0-1.84-1.2-3.12q-1.248-1.296-3.04-1.296z M43.34688,23.584l-6.432,0l0-0.832q0-1.376,0.928-2.384q0.944-1.024,2.272-1.024t2.304,1.024q0.928,1.008,0.928,2.384l0,0.832z M51.66432,23.984l1.2,0q1.216,0,2.016-0.8t0.8-2.016q0-1.072-0.8-1.92q-0.848-0.88-2.016-0.88l-5.008,0l-0.992,0l0,11.232l0.992,0l0-5.616l2.608,0l3.408,5.616l1.2,0z M47.85632,22.992l0-3.616l5.008,0q0.736,0,1.296,0.528q0.528,0.528,0.528,1.264q0,0.768-0.528,1.296q-0.56,0.528-1.296,0.528l-5.008,0z M57.99776,29.6l0.992,0l0-6.784q0-1.344,1.024-2.4q1.024-1.024,2.368-1.024t2.4,1.024q1.024,1.056,1.024,2.4l0,6.784l0.992,0l0-6.784q0-1.824-1.296-3.12t-3.12-1.296q-1.792,0-3.088,1.296t-1.296,3.12l0,6.784z"/><path fill="#" d="M82.4192,18.4l-8.672,0l0,0.976l3.936,0l0,10.256l0.992,0l0-10.256l3.744,0l0-0.976z M85.37664,26.528q0-0.768,0.544-1.392q0.544-0.656,1.312-0.656l0.208,0l2.992,0l0-0.992l-2.992,0l-0.208,0q-0.816-0.16-1.336-0.704t-0.52-1.296q0-0.944,0.552-1.496t1.512-0.552l5.44,0l0-1.008l-5.44,0q-1.232,0-2.144,0.912q-0.912,0.88-0.912,2.144q0,0.8,0.304,1.456t0.896,0.944q-0.592,0.432-0.896,1.136t-0.304,1.504q0,1.248,0.912,2.128q0.928,0.928,2.144,0.928l5.44,0l0-1.056l-5.44,0q-0.96,0-1.512-0.544t-0.552-1.456z M103.23008,29.6l0-1.008l-2.848,0q-1.984,0-3.328-1.344t-1.344-3.328q0-1.824,1.344-3.136t3.328-1.312l2.848,0l0-1.04l-2.848,0q-2.416,0-4.048,1.6q-1.632,1.584-1.632,3.888q0,2.448,1.632,4.048q1.6,1.632,4.048,1.632l2.848,0z M114.18752,18.368l-1.008,0l0,5.12l-6.752,0l0-5.12l-1.008,0l0,11.232l1.008,0l0-5.104l6.752,0l0,5.104l1.008,0l0-11.232z"/></svg>
